<?xml version="1.0" standalone="no"?>
<!DOCTYPE svg PUBLIC "-//W3C//DTD SVG 20010904//EN"
 "http://www.w3.org/TR/2001/REC-SVG-20010904/DTD/svg10.dtd">
<svg version="1.0" xmlns="http://www.w3.org/2000/svg"
 width="512.000000pt" height="512.000000pt" viewBox="0 0 512.000000 512.000000"
 preserveAspectRatio="xMidYMid meet">

<g transform="translate(0.000000,512.000000) scale(0.100000,-0.100000)"
fill="#000000" stroke="none">
<path d="M255 4946 c-41 -18 -83 -69 -91 -111 -16 -87 -17 -86 322 -425 l314
-315 0 -1215 0 -1215 -314 -315 c-274 -274 -315 -320 -321 -353 -10 -51 0 -94
30 -132 39 -53 78 -65 203 -65 l109 0 -14 -62 c-41 -174 30 -370 174 -480 98
-74 157 -92 293 -92 136 0 195 18 293 92 144 110 215 306 174 480 l-14 62
1147 0 1147 0 -14 -62 c-41 -174 30 -370 174 -480 98 -74 157 -92 293 -92 136
0 195 18 293 92 143 110 215 306 175 479 l-15 61 123 4 c105 3 127 6 150 24
53 39 69 71 69 134 0 63 -16 95 -69 134 l-27 21 -2077 3 -2077 2 160 160 160
160 1584 0 c1568 0 1585 0 1625 20 23 11 50 32 60 47 25 35 665 2589 666 2657
0 63 -30 112 -84 137 -40 18 -110 19 -1946 19 l-1905 0 -305 306 c-168 168
-319 312 -337 320 -40 17 -89 17 -128 0z m1775 -953 c0 -5 -52 -221 -117 -480
l-118 -473 -337 0 -338 0 0 480 0 480 455 0 c250 0 455 -3 455 -7z m1280 0 c0
-5 -52 -221 -117 -480 l-118 -473 -472 0 c-260 0 -473 3 -473 8 0 4 52 220
117 480 l118 472 472 0 c260 0 473 -3 473 -7z m1280 0 c0 -5 -52 -221 -117
-480 l-118 -473 -472 0 c-260 0 -473 3 -473 8 0 4 52 220 117 480 l118 472
472 0 c260 0 473 -3 473 -7z m-2880 -1280 c0 -5 -52 -221 -117 -480 l-118
-473 -177 0 -178 0 0 480 0 480 295 0 c162 0 295 -3 295 -7z m1280 0 c0 -5
-52 -221 -117 -480 l-118 -473 -472 0 c-260 0 -473 3 -473 8 0 4 52 220 117
480 l118 472 472 0 c260 0 473 -3 473 -7z m1280 0 c0 -5 -52 -221 -117 -480
l-118 -473 -472 0 c-260 0 -473 3 -473 8 0 4 52 220 117 480 l118 472 472 0
c260 0 473 -3 473 -7z m-3247 -1927 c103 -43 128 -177 48 -257 -65 -65 -157
-65 -222 0 -124 123 13 325 174 257z m3200 0 c103 -43 128 -177 48 -257 -65
-65 -157 -65 -222 0 -124 123 13 325 174 257z"/>
</g>
</svg>
