<svg width="25" height="25" viewBox="0 0 25 25" fill="none" xmlns="http://www.w3.org/2000/svg">
<path d="M16.6566 12.4529L24.1509 4.95777C24.6375 4.40525 24.8952 3.68837 24.8717 2.95282C24.8482 2.21727 24.5452 1.51827 24.0244 0.99789C23.5035 0.477515 22.8039 0.174821 22.0676 0.151337C21.3314 0.127853 20.6138 0.385341 20.0608 0.871462L12.5588 8.35884L5.0432 0.848299C4.77401 0.579355 4.45443 0.366018 4.10271 0.220466C3.75099 0.0749144 3.37402 2.83379e-09 2.99332 0C2.61263 -2.83379e-09 2.23566 0.0749144 1.88394 0.220466C1.53222 0.366018 1.21264 0.579355 0.943448 0.848299C0.674254 1.11724 0.460718 1.43653 0.315032 1.78792C0.169345 2.13931 0.0943613 2.51593 0.0943613 2.89628C0.0943613 3.27662 0.169345 3.65324 0.315032 4.00463C0.460718 4.35603 0.674254 4.67531 0.943448 4.94425L8.46095 12.4529L0.966632 19.946C0.672718 20.2085 0.435499 20.5282 0.269487 20.8854C0.103476 21.2426 0.0121629 21.6299 0.00113432 22.0237C-0.00989421 22.4174 0.0595937 22.8092 0.205347 23.1751C0.351101 23.5411 0.570055 23.8735 0.848815 24.152C1.12757 24.4305 1.46028 24.6492 1.82657 24.7948C2.19286 24.9405 2.58504 25.0099 2.97911 24.9989C3.37318 24.9878 3.76086 24.8966 4.11842 24.7308C4.47599 24.5649 4.79593 24.3279 5.05866 24.0343L12.5588 16.5469L20.0512 24.0343C20.5948 24.5774 21.3322 24.8826 22.101 24.8826C22.8699 24.8826 23.6073 24.5774 24.1509 24.0343C24.6946 23.4911 25 22.7544 25 21.9863C25 21.2181 24.6946 20.4815 24.1509 19.9383L16.6566 12.4529Z" fill="#272525"/>
</svg>
