<?xml version="1.0" standalone="no"?>
<!DOCTYPE svg PUBLIC "-//W3C//DTD SVG 20010904//EN"
 "http://www.w3.org/TR/2001/REC-SVG-20010904/DTD/svg10.dtd">
<svg version="1.0" xmlns="http://www.w3.org/2000/svg"
 width="512.000000pt" height="512.000000pt" viewBox="0 0 512.000000 512.000000"
 preserveAspectRatio="xMidYMid meet">

<g transform="translate(0.000000,512.000000) scale(0.100000,-0.100000)"
fill="#000000" stroke="none">
<path d="M2290 5114 c-253 -31 -441 -85 -644 -185 -198 -99 -349 -211 -513
-383 -235 -246 -395 -557 -465 -906 -20 -100 -23 -144 -23 -340 1 -240 10
-310 61 -492 116 -407 379 -769 729 -1003 331 -221 693 -326 1070 -311 220 9
357 34 553 103 59 21 106 32 111 27 4 -5 216 -371 471 -814 255 -443 464 -806
465 -808 3 -4 375 212 375 218 0 3 -211 372 -469 819 l-470 813 92 78 c251
211 448 511 550 835 63 201 95 486 76 684 -77 841 -682 1499 -1514 1646 -87
16 -383 28 -455 19z m476 -468 c362 -91 657 -301 856 -612 78 -121 161 -340
189 -494 20 -111 18 -384 -5 -490 -39 -192 -127 -398 -231 -545 -72 -102 -246
-272 -346 -338 -246 -163 -492 -238 -778 -238 -215 0 -401 42 -588 131 -400
190 -683 556 -769 995 -24 125 -24 369 0 490 109 549 492 961 1019 1096 130
33 184 38 372 34 152 -3 196 -7 281 -29z"/>
</g>
</svg>
