<?xml version="1.0" standalone="no"?>
<!DOCTYPE svg PUBLIC "-//W3C//DTD SVG 20010904//EN"
 "http://www.w3.org/TR/2001/REC-SVG-20010904/DTD/svg10.dtd">
<svg version="1.0" xmlns="http://www.w3.org/2000/svg"
 width="512.000000pt" height="512.000000pt" viewBox="0 0 512.000000 512.000000"
 preserveAspectRatio="xMidYMid meet">

<g transform="translate(0.000000,512.000000) scale(0.100000,-0.100000)"
fill="#000000" stroke="none">
<path d="M1312 5105 c-136 -38 -224 -118 -275 -253 -22 -57 -22 -59 -25 -1004
l-3 -946 -167 -4 c-160 -3 -169 -4 -225 -32 -114 -55 -206 -178 -230 -308 -23
-123 26 -272 118 -364 100 -100 190 -128 381 -118 l124 7 0 -105 0 -106 -157
-4 c-152 -4 -160 -5 -226 -35 -172 -81 -270 -264 -237 -445 24 -138 115 -259
237 -316 54 -25 69 -27 221 -30 l162 -4 0 -312 c0 -171 5 -340 10 -376 26
-164 144 -293 305 -336 177 -48 396 50 478 213 41 80 47 144 47 490 l0 323
739 0 c708 0 742 1 803 20 243 75 357 352 241 584 -53 106 -171 193 -293 216
-32 6 -330 10 -771 10 l-719 0 0 100 0 100 623 0 c874 1 1010 11 1252 91 367
121 681 402 855 764 109 227 155 432 154 695 -1 257 -40 425 -149 645 -78 156
-167 275 -314 417 -243 237 -474 359 -786 415 -131 23 -2091 31 -2173 8z
m1923 -825 c196 -10 248 -21 355 -75 164 -84 287 -239 341 -430 30 -105 32
-272 6 -360 -82 -269 -319 -464 -613 -505 -47 -6 -341 -10 -775 -10 l-699 0 0
695 0 695 603 0 c331 -1 683 -5 782 -10z"/>
</g>
</svg>
